<?xml version="1.0" encoding="UTF-8"?>
<!DOCTYPE svg PUBLIC "-//W3C//DTD SVG 1.1//EN" "http://www.w3.org/Graphics/SVG/1.1/DTD/svg11.dtd">
<!-- Creator: CorelDRAW X6 -->
<svg xmlns="http://www.w3.org/2000/svg" xml:space="preserve" width="126.566mm" height="78.22mm" version="1.1" style="shape-rendering:geometricPrecision; text-rendering:geometricPrecision; image-rendering:optimizeQuality; fill-rule:evenodd; clip-rule:evenodd"
viewBox="0 0 756 467"
 xmlns:xlink="http://www.w3.org/1999/xlink">
 <defs>
  <style type="text/css">
   <![CDATA[
    .fil0 {fill:#FEFEFE}
   ]]>
  </style>
 </defs>
 <g id="Слой_x0020_1">
  <metadata id="CorelCorpID_0Corel-Layer"/>
  <path class="fil0" d="M640 176c-2,-16 1,-83 -1,-90 -2,-10 -5,-15 -13,-21 -2,-2 0,0 -2,-1l-5 -3c-2,0 -3,0 -6,-1 -5,-1 -8,-1 -15,-1 -8,0 -15,0 -22,0l-475 0c-21,0 -8,1 -20,2 -4,0 -8,4 -12,6 -4,3 -3,3 -5,6 -2,2 -1,0 -2,3l-2 4c0,2 0,1 0,2 -1,1 -1,0 -1,2l0 299c0,3 0,2 1,3l6 13 11 6 9 3c4,1 35,0 39,0l474 0c3,0 8,0 11,0 5,0 1,-1 5,-1 4,-1 2,1 7,-2 7,-3 12,-9 15,-16l2 -8 1 -90 53 0c3,0 4,1 4,-2l0 -108c0,-5 0,-5 -3,-5l-54 0zm-28 177l0 -213c0,-5 0,-20 0,-24l-8 -17c-4,-3 -5,-5 -9,-7 -12,-6 -16,-4 -32,-4l-446 0c-5,0 -3,0 -6,1 -1,0 -1,0 -2,0l-7 3c-3,2 -8,6 -10,9 -1,2 0,0 -1,2 -2,2 -1,0 -2,2l-1 2c-1,4 -1,2 -1,8 1,63 0,126 0,189 0,8 -1,51 1,55l0 1c2,5 1,2 3,6 5,6 8,8 15,12 9,3 18,2 29,2 9,0 18,0 28,0l412 0c7,0 11,0 17,-3 1,-1 3,-1 4,-2 3,-2 10,-8 11,-11 3,-5 3,-7 3,-9 1,-3 1,0 2,-2zm87 -236c11,1 22,0 33,0 2,0 6,2 8,3 3,1 2,0 4,2l3 2c1,1 1,1 1,2l1 1c2,3 4,4 5,6l1 4c1,2 0,0 1,2 0,3 0,6 0,8l0 174c0,6 0,13 -5,17 -1,2 -2,4 -4,5 0,0 0,0 0,0 -3,2 -6,5 -10,6l-1 0c0,0 0,0 0,1 -6,2 -31,0 -37,0 -1,7 0,38 -1,41 -2,4 -2,9 -3,13 0,0 -1,2 -1,2 0,0 0,1 0,1 -2,5 -3,8 -5,12 -1,1 -1,2 -1,3l-3 5c-1,2 -2,3 -4,5 -1,1 -1,1 -2,2l-5 7c-6,6 -6,5 -10,8l-4 3c-8,4 -8,6 -19,10 -5,1 -10,3 -16,4 -5,0 -2,1 -7,1 -10,1 -22,0 -32,0l-492 0c-4,0 -13,1 -17,0l-6 -1c-4,-1 -4,-2 -7,-2 -6,-1 -12,-4 -18,-7l-8 -5c-1,0 -1,0 -1,-1l-4 -2c-5,-3 -17,-17 -21,-24 -1,-2 -2,-2 -3,-4 -2,-5 -3,-8 -5,-12l-1 -5c0,0 0,0 0,0 -1,-3 -1,-1 -1,-5 -1,-4 -2,-6 -2,-11 0,-3 0,-5 0,-8l0 -295c0,-15 1,-10 1,-15 1,-2 0,-2 1,-4 0,0 0,-1 1,-1l10 -24c0,0 0,0 0,0 0,0 0,0 0,-1l5 -7c2,-2 13,-13 15,-14 8,-6 17,-11 26,-14l7 -2c4,0 2,-1 7,-1 4,-1 1,-2 6,-2 27,0 55,0 82,0l426 0c7,0 26,-1 33,0 3,1 1,2 6,2 4,0 10,2 13,3 2,1 5,2 6,2l21 13c3,1 6,5 9,7l7 9c2,3 3,6 5,8 3,4 5,10 6,15 1,0 1,0 1,0l3 12c0,5 1,3 1,6 2,6 -1,31 1,40z"/>
 </g>
</svg>
