<?xml version="1.0" encoding="UTF-8"?>
<!DOCTYPE svg PUBLIC "-//W3C//DTD SVG 1.1//EN" "http://www.w3.org/Graphics/SVG/1.1/DTD/svg11.dtd">
<!-- Creator: CorelDRAW X6 -->
<svg xmlns="http://www.w3.org/2000/svg" xml:space="preserve" width="108.883mm" height="102.533mm" version="1.1" style="shape-rendering:geometricPrecision; text-rendering:geometricPrecision; image-rendering:optimizeQuality; fill-rule:evenodd; clip-rule:evenodd"
viewBox="0 0 484 456"
 xmlns:xlink="http://www.w3.org/1999/xlink">
 <defs>
  <style type="text/css">
   <![CDATA[
    .str0 {stroke:#E31E24;stroke-width:0.889053}
    .fil0 {fill:#FEFEFE}
    .fil1 {fill:#ED5157}
   ]]>
  </style>
 </defs>
 <g id="Слой_x0020_1">
  <metadata id="CorelCorpID_0Corel-Layer"/>
  <path class="fil0" d="M202 399l80 0c-4,7 -5,12 -14,19 -19,14 -46,11 -61,-8 -2,-4 -3,-7 -5,-11zm36 -342c9,0 13,0 22,1 8,1 17,3 24,5 9,3 13,6 21,10l10 8c3,3 7,6 10,10 3,3 6,9 9,13 2,3 3,6 5,9l3 5c0,2 1,4 2,5l4 12c4,13 6,22 9,35 3,13 5,24 7,38l10 65c2,15 5,23 8,37 1,2 1,3 2,5 3,10 6,19 10,28 4,7 10,16 15,23 1,1 2,2 3,4l-340 0c5,-8 7,-9 15,-22 1,-2 1,-3 2,-5l5 -10c1,-4 3,-8 4,-11 1,-4 3,-7 4,-12l8 -36 12 -78c1,-9 5,-28 7,-38 2,-8 7,-25 11,-34l7 -15c2,-4 6,-11 9,-14 1,-1 2,-3 3,-4 4,-5 6,-7 11,-11l9 -7c3,-1 6,-4 10,-5 16,-7 30,-11 49,-11zm-25 -29l0 3c-2,0 -5,0 -7,1l-14 3c-22,8 -41,20 -56,39l-7 10c-9,13 -18,32 -22,47l-4 14c-4,14 -6,28 -9,43 -3,14 -5,29 -7,44l-4 30c-1,5 -2,10 -3,15 -2,10 -4,19 -7,28 -7,25 -18,50 -43,60 -2,1 -5,2 -7,2 -8,2 -15,3 -23,3l0 29 172 0c3,12 8,22 15,31l6 7c1,0 1,0 1,0 0,1 0,1 1,1 19,17 51,23 74,13 11,-5 20,-11 28,-20 7,-10 12,-20 15,-32l172 0 0 -29c-24,0 -44,-8 -58,-28 -2,-4 -4,-8 -6,-11 -13,-27 -19,-68 -23,-98 0,-2 -1,-5 -1,-7 -1,-3 -1,-6 -1,-8 -2,-11 -3,-21 -5,-30 -3,-17 -6,-33 -11,-49 -1,-2 -1,-5 -2,-7 -1,-5 -3,-9 -4,-13 -2,-4 -4,-9 -6,-12 -5,-11 -8,-18 -15,-28 -2,-2 -3,-3 -4,-5 -6,-8 -14,-15 -22,-21 -13,-11 -31,-18 -48,-21 -2,-1 -4,-1 -7,-1 0,-13 -5,-23 -16,-28 -9,-5 -22,-4 -30,2 -3,2 -5,4 -7,7 -3,5 -5,10 -5,16z"/>
  <circle class="fil1 str0" cx="360" cy="93" r="71"/>
 </g>
</svg>
