<?xml version="1.0" encoding="UTF-8"?>
<!DOCTYPE svg PUBLIC "-//W3C//DTD SVG 1.1//EN" "http://www.w3.org/Graphics/SVG/1.1/DTD/svg11.dtd">
<!-- Creator: CorelDRAW X6 -->
<svg xmlns="http://www.w3.org/2000/svg" xml:space="preserve" width="359.996mm" height="361.743mm" version="1.1" style="shape-rendering:geometricPrecision; text-rendering:geometricPrecision; image-rendering:optimizeQuality; fill-rule:evenodd; clip-rule:evenodd"
viewBox="0 0 20625 20725"
 xmlns:xlink="http://www.w3.org/1999/xlink">
 <defs>
  <style type="text/css">
   <![CDATA[
    .fil1 {fill:#FEFEFE}
    .fil0 {fill:#F7931A}
   ]]>
  </style>
 </defs>
 <g id="Слой_x0020_1">
  <metadata id="CorelCorpID_0Corel-Layer"/>
  <ellipse class="fil0" cx="10312" cy="10362" rx="10312" ry="10362"/>
  <path class="fil1" d="M9740 9346c18,-220 328,-1340 419,-1706 43,-172 70,-408 149,-548 486,74 1204,281 1593,478 408,207 914,567 781,1243 -114,576 -542,834 -1202,846 -393,8 -1484,-174 -1740,-313zm4528 1851c-76,-180 -545,-496 -791,-614l193 -82c269,-52 616,-311 737,-451 180,-206 315,-417 417,-756 233,-771 103,-1325 -280,-1855 -73,-72 -104,-126 -174,-195 -178,-178 -438,-354 -665,-487 -337,-198 -687,-304 -1070,-467l454 -1867 -1126 -277 -448 1810 -914 -208 451 -1835 -1068 -269c-83,10 -38,-14 -78,47l-301 1215 -142 590c-110,-19 -2095,-496 -2248,-558 -80,22 -64,45 -85,140 -64,289 -226,838 -257,1054 138,85 725,143 1020,293 434,221 327,581 248,897l-1039 4174c-82,337 -121,804 -421,892 -226,66 -835,-159 -1084,-200l-553 1293 2281 575 -465 1891 1129 272 468 -1854 901 234 -460 1857 1134 273 463 -1863c253,-8 1022,234 1960,127 1270,-145 1953,-992 2182,-2145 100,-502 78,-911 -148,-1357 -41,-80 -143,-253 -221,-294zm-4775 -696l1129 288c651,194 665,282 1031,419 22,35 177,130 234,176 243,193 443,449 464,811 15,260 -65,499 -178,673 -386,596 -1334,546 -1971,444 -547,-88 -1063,-261 -1374,-310 15,-143 465,-1896 547,-2224 13,-54 26,-108 38,-163 18,-77 8,-112 80,-114z"/>
 </g>
</svg>
