<?xml version="1.0" encoding="UTF-8"?>
<!DOCTYPE svg PUBLIC "-//W3C//DTD SVG 1.1//EN" "http://www.w3.org/Graphics/SVG/1.1/DTD/svg11.dtd">
<!-- Creator: CorelDRAW X6 -->
<svg xmlns="http://www.w3.org/2000/svg" xml:space="preserve" width="148.344mm" height="103.694mm" version="1.1" style="shape-rendering:geometricPrecision; text-rendering:geometricPrecision; image-rendering:optimizeQuality; fill-rule:evenodd; clip-rule:evenodd"
viewBox="0 0 1071 748"
 xmlns:xlink="http://www.w3.org/1999/xlink">
 <defs>
  <style type="text/css">
   <![CDATA[
    .fil0 {fill:#FEFEFE}
   ]]>
  </style>
 </defs>
 <g id="Слой_x0020_1">
  <metadata id="CorelCorpID_0Corel-Layer"/>
  <path class="fil0" d="M93 416l0 0c51,0 93,42 93,93l0 147c0,51 -42,92 -93,92l0 0c-51,0 -93,-41 -93,-92l0 -147c0,-51 42,-93 93,-93zm885 -416l0 0c51,0 93,42 93,93l0 563c0,51 -42,92 -93,92l0 0c-51,0 -93,-41 -93,-92l0 -563c0,-51 42,-93 93,-93zm-289 142l0 0c51,0 93,42 93,93l0 421c0,51 -42,92 -93,92l0 0c-51,0 -93,-41 -93,-92l0 -421c0,-51 42,-93 93,-93zm-297 136l0 0c51,0 93,42 93,93l0 285c0,51 -42,92 -93,92l0 0c-51,0 -93,-41 -93,-92l0 -285c0,-51 42,-93 93,-93z"/>
 </g>
</svg>
