<?xml version="1.0" encoding="UTF-8"?>
<!DOCTYPE svg PUBLIC "-//W3C//DTD SVG 1.1//EN" "http://www.w3.org/Graphics/SVG/1.1/DTD/svg11.dtd">
<!-- Creator: CorelDRAW X6 -->
<svg xmlns="http://www.w3.org/2000/svg" xml:space="preserve" width="27.823mm" height="21.7344mm" version="1.1" style="shape-rendering:geometricPrecision; text-rendering:geometricPrecision; image-rendering:optimizeQuality; fill-rule:evenodd; clip-rule:evenodd"
viewBox="0 0 2490 1945"
 xmlns:xlink="http://www.w3.org/1999/xlink">
 <defs>
  <style type="text/css">
   <![CDATA[
    .fil0 {fill:#FEFEFE}
   ]]>
  </style>
 </defs>
 <g id="Слой_x0020_1">
  <metadata id="CorelCorpID_0Corel-Layer"/>
  <path class="fil0" d="M0 607l0 43c0,82 86,168 167,168 154,0 146,-54 251,-135 36,-28 66,-47 101,-74 98,-74 238,-131 356,-169 261,-83 620,-67 865,43 21,9 39,20 60,28 86,35 194,113 268,168 104,79 98,139 255,139 81,0 167,-86 167,-168 0,-93 -5,-111 -78,-183 -38,-38 -75,-68 -117,-102l-194 -134c-26,-15 -47,-28 -74,-42 -96,-49 -203,-97 -319,-125 -331,-83 -588,-87 -920,-2 -148,38 -263,94 -390,164 -96,54 -240,160 -316,237 -35,35 -82,79 -82,144z"/>
  <path class="fil0" d="M553 1167c0,204 196,255 313,167 107,-81 191,-166 379,-166 99,0 218,40 300,100 70,52 142,150 278,91 115,-49 148,-187 79,-288 -73,-106 -292,-224 -421,-256 -255,-64 -530,-27 -746,127 -69,49 -182,129 -182,225z"/>
  <path class="fil0" d="M1034 1728c0,91 49,164 123,198 80,38 174,19 236,-43 85,-85 83,-209 7,-295 -115,-131 -366,-55 -366,140z"/>
 </g>
</svg>
