<?xml version="1.0" encoding="UTF-8"?>
<!DOCTYPE svg PUBLIC "-//W3C//DTD SVG 1.1//EN" "http://www.w3.org/Graphics/SVG/1.1/DTD/svg11.dtd">
<!-- Creator: CorelDRAW X6 -->
<svg xmlns="http://www.w3.org/2000/svg" xml:space="preserve" width="276.417mm" height="299.574mm" version="1.1" style="shape-rendering:geometricPrecision; text-rendering:geometricPrecision; image-rendering:optimizeQuality; fill-rule:evenodd; clip-rule:evenodd"
viewBox="0 0 5186 5621"
 xmlns:xlink="http://www.w3.org/1999/xlink">
 <defs>
  <style type="text/css">
   <![CDATA[
    .fil0 {fill:url(#id0)}
   ]]>
  </style>
  <linearGradient id="id0" gradientUnits="userSpaceOnUse" x1="5186.08" y1="2811.21" x2="-2.11446" y2="2811.21">
   <stop offset="0" style="stop-color:#179AF4"/>
   <stop offset="1" style="stop-color:#60B9F7"/>
  </linearGradient>
 </defs>
 <g id="Слой_x0020_1">
  <metadata id="CorelCorpID_0Corel-Layer"/>
  <path class="fil0" d="M1450 3951c61,-4 278,-91 305,-117 10,-9 3,1 7,-9 59,-12 192,-136 237,-182l97 -111c22,-28 78,-96 85,-126 17,-7 40,-55 52,-71 42,-59 70,-87 126,-132 26,-22 55,-32 81,-53 29,-7 45,-18 74,-25 28,-7 60,-12 95,-12l44 0c21,3 14,2 32,6 31,1 73,16 98,25 14,11 2,5 28,6 5,17 -10,-5 6,8 1,2 13,9 14,10 26,14 11,12 30,8 12,20 -12,3 19,19 8,6 15,13 24,19 10,8 17,12 26,18 6,9 56,65 63,70 6,22 19,33 32,54l17 36c9,22 13,28 14,55l19 18c-9,24 0,83 0,120l0 29c0,32 -4,34 -6,56 -7,38 -20,81 -36,113 -15,31 -40,68 -46,101 -17,13 -39,74 -48,94 -15,34 -32,75 -40,111l-25 94c-9,6 -12,27 -15,42 -5,20 -7,35 -11,53 -5,34 -12,76 -12,114l0 37 0 89c0,38 10,73 12,107 1,20 3,25 7,44 2,10 2,12 5,20 8,21 -1,5 10,18 -3,20 1,33 7,50 1,7 3,17 5,23 1,2 3,8 4,9 4,9 3,8 7,12 2,29 19,67 31,92 5,16 8,23 16,38 19,39 32,74 58,111 9,13 2,4 8,11 8,16 11,25 23,41 10,15 17,23 27,35 12,22 30,49 51,63 13,24 22,35 44,50l44 44c13,20 2,9 23,19 2,10 0,4 7,15l69 57c9,7 6,6 14,10 23,14 4,6 19,7 13,20 -12,3 19,18 1,1 3,1 4,3 0,2 2,3 3,3l73 45c17,14 58,34 81,44 13,9 18,9 35,9 1,2 2,2 3,4 1,2 3,3 4,3l37 20c28,7 65,24 91,27 17,9 6,6 32,6 12,12 58,19 75,19 13,9 44,13 66,13 23,7 95,12 126,12l89 0c25,0 16,2 37,-6 97,0 234,-36 304,-63 51,-20 83,-33 127,-55 29,-14 103,-51 118,-71 41,-11 157,-117 190,-150 30,-30 140,-155 150,-190 18,-14 56,-88 69,-114 18,-36 41,-87 56,-132 26,-79 64,-202 64,-302 0,-28 -2,-20 6,-38l0 -88c-2,-37 -10,-90 -13,-126 0,-15 -8,-54 -12,-66 -2,-20 -11,-64 -19,-76 -1,-18 -2,-19 -6,-32 -5,-14 -9,-25 -14,-40 -1,-5 -4,-17 -7,-24 -9,-20 -2,-10 -11,-17 -4,-25 -6,-30 -19,-51 -2,-19 -8,-27 -15,-41 -9,-18 -15,-29 -23,-44 -7,-15 -15,-24 -21,-38 -11,-22 -32,-58 -48,-69 -4,-18 1,-7 -12,-25 -14,-26 -80,-106 -95,-109 -10,-22 1,-11 -19,-24l-44 -44c-8,-11 -38,-36 -50,-44 -17,-14 -47,-44 -70,-50 -10,-14 -56,-46 -75,-51 -26,-22 -45,-29 -75,-44 -21,-11 -64,-25 -79,-38l-98 -31 -44 -10c-17,-5 -33,-9 -55,-9 -25,-13 -56,-8 -78,-19 -29,0 -82,-7 -107,-13 -30,0 -61,4 -82,-6l-38 0c-38,0 -129,-10 -146,-25 -29,-5 -21,-10 -49,-13 -1,-1 -3,-4 -3,-2l-37 -21c-16,-8 -26,-16 -39,-21 -13,-12 -22,-18 -37,-29 -18,-13 -20,-18 -38,-27l-8 -15c-5,-8 -5,-5 -11,-17 -11,-12 -5,-8 -16,-6 -6,-18 -34,-74 -44,-82l-6 -32c-13,-26 -22,-56 -26,-90 0,-31 -6,-47 -6,-86 0,-26 4,-53 9,-79 5,-27 14,-46 16,-72 15,-18 14,-23 22,-42 29,-66 99,-142 160,-180 34,-22 55,-30 92,-49 41,-13 65,-20 115,-27 19,-3 37,-5 65,-5 37,1 45,-4 74,-6l21 0c38,0 73,-10 107,-13 20,0 23,-3 41,-6 59,-2 181,-41 237,-62 20,-8 53,-16 65,-33 31,-2 59,-22 93,-42 140,-84 263,-196 358,-329 25,-36 92,-134 100,-180 12,-8 13,-16 19,-29 29,-71 80,-208 82,-280 3,-17 6,-20 6,-41 3,-29 9,-78 13,-107l0 -21c0,-49 -4,-169 -16,-205 -5,-29 -3,-37 -13,-65 -1,-1 -2,-3 -2,-5l-7 -31c0,-20 -7,-53 -19,-63 -3,-24 0,-10 -6,-28 -6,-17 -10,-32 -17,-50l-21 -42c-2,-10 -3,-15 -6,-25 -1,-2 -6,-13 -6,-13 -9,-13 -5,-10 -13,-12 -4,-29 -7,-29 -20,-50l-24 -38c-20,-40 -46,-75 -76,-114l-25 -25c-9,-23 -47,-60 -57,-63 -8,-22 1,-10 -15,-25 -21,-21 -26,-23 -48,-38 -8,-13 -17,-22 -30,-33 -13,-10 -27,-22 -39,-30 -17,-12 -27,-25 -50,-32 -13,-18 -17,-16 -38,-31 -24,-11 -16,-16 -38,-15l-82 -48c-9,-8 -7,-7 -19,-12 -9,-4 -16,-5 -25,-7 -6,-6 1,-2 -15,-10 -8,-4 -19,-6 -26,-9 -13,-9 -71,-27 -91,-32 -19,-9 -69,-18 -93,-25 -19,-1 -84,-11 -103,-19 -39,0 -53,-2 -83,-6l-93 0c-22,0 -24,3 -44,6l-132 19c-51,1 -83,19 -126,25 -9,4 -10,4 -19,7 -6,3 -5,2 -12,6 -19,11 0,-8 -7,6 -40,3 -207,83 -226,101l-7 13c-83,13 -290,232 -349,318 -20,28 -31,38 -36,66 -14,1 -10,5 -32,43 -26,42 -74,146 -81,190 -8,7 -11,19 -13,32 -10,33 -29,94 -31,132 -6,38 -19,90 -19,132l0 38 0 93c0,36 6,52 6,77 6,34 17,78 19,109 7,26 23,66 25,93 13,26 24,66 35,94 7,16 9,25 16,38 8,16 11,29 19,44l36 71c10,12 -3,1 12,11 -2,17 -4,5 2,19 11,28 4,10 13,13 4,27 8,30 19,50 9,19 13,46 25,63 0,34 16,71 19,107l0 92c-3,22 -5,11 -7,41 -22,157 -165,285 -321,334 -3,1 -12,4 -14,5 -18,8 -6,-2 -11,7 -4,0 -19,0 -24,0 -17,3 -12,0 -17,6l-92 0c-38,0 -73,-16 -107,-18 -6,-5 1,-1 -12,-7 -8,-4 -7,-3 -18,-7 -12,-5 -18,-8 -33,-12 -10,-8 -2,-2 -14,-10 -11,-7 -11,-6 -23,-15 -24,-10 -16,-16 -38,-15 -13,-26 -8,-13 -30,-31 -15,-12 -18,-19 -33,-29l-32 -32c-5,-19 2,-5 -10,-21 -19,-25 16,17 -7,-7 -7,-8 -2,-3 -11,-10 -5,-21 -28,-53 -41,-74 -15,-22 -36,-53 -51,-68 -7,-15 -16,-24 -26,-39 -2,-1 -13,-17 -14,-18 -17,-18 -3,-7 -22,-15 -1,-18 4,6 -3,-12 -2,-5 -5,-9 -9,-14 -8,-11 -14,-14 -21,-24 -21,-21 -19,-28 -43,-45l-19 -18 -82 -76c-12,-10 -17,-14 -28,-25 -12,-6 -12,-5 -22,-13 -5,-4 -7,-6 -14,-11 -7,-5 -12,-8 -19,-13 -18,-11 -21,-9 -37,-26 -32,-5 -47,-37 -82,-34 -12,-17 9,0 -18,-17 -7,-4 -12,-5 -22,-9 -19,-8 -25,-14 -45,-16 -30,-16 -55,-22 -89,-33 -32,-10 -60,-22 -98,-24 -15,-6 -33,-9 -44,-10 -51,-8 -92,-15 -147,-15l-118 0c-36,0 -128,9 -149,19 -23,1 -139,27 -164,44 -37,3 -142,54 -175,72 -16,8 -43,19 -49,35 -55,11 -191,135 -232,175 -40,40 -164,182 -174,232 -7,5 -1,-2 -8,8 -5,6 -3,3 -8,11 -7,11 -7,11 -14,24l-51 113c-11,25 -18,37 -20,61l-5 8c-14,30 -39,128 -39,156 -11,23 -19,111 -19,149 0,30 -4,31 -6,53 -3,33 4,39 6,66 0,43 2,62 6,98 2,23 7,79 24,94 -7,25 5,53 13,78l6 19c10,33 15,61 33,89l25 66c16,28 0,6 17,19 -2,19 5,26 14,44 7,12 18,25 19,38 15,19 15,19 26,37 7,13 13,23 25,32l12 22c8,10 12,16 21,27 7,10 15,21 25,32 19,21 32,42 55,58l13 12 44 49c10,7 11,11 20,19 11,9 0,3 15,10 14,7 3,4 15,4l10 15c1,1 2,3 3,4l57 41c20,21 46,33 74,49 26,16 50,33 80,42 17,11 21,15 41,19 1,1 3,1 4,3l40 16 92 32c10,8 23,12 40,12 21,8 34,12 57,13 1,1 4,0 4,2l24 7c18,4 22,4 41,4l9 3c35,8 76,9 111,9 31,7 46,6 85,6 23,-2 12,-4 41,-6 54,0 86,-10 132,-12 12,-2 21,-5 37,-8 10,-2 26,-4 33,-11z"/>
 </g>
</svg>
